<?xml version="1.0" encoding="UTF-8" standalone="no"?>
<!-- Generator: Adobe Illustrator 21.0.0, SVG Export Plug-In . SVG Version: 6.00 Build 0)  -->

<svg
   xmlns:dc="http://purl.org/dc/elements/1.1/"
   xmlns:cc="http://creativecommons.org/ns#"
   xmlns:rdf="http://www.w3.org/1999/02/22-rdf-syntax-ns#"
   xmlns:svg="http://www.w3.org/2000/svg"
   xmlns="http://www.w3.org/2000/svg"
   xmlns:sodipodi="http://sodipodi.sourceforge.net/DTD/sodipodi-0.dtd"
   xmlns:inkscape="http://www.inkscape.org/namespaces/inkscape"
   version="1.1"
   id="Layer_1"
   x="0px"
   y="0px"
   viewBox="0 0 762.50848 762.50848"
   xml:space="preserve"
   sodipodi:docname="favicon.svg"
   width="762.50848"
   height="762.50848"
   inkscape:version="0.92.3 (2405546, 2018-03-11)"><metadata
   id="metadata19"><rdf:RDF><cc:Work
       rdf:about=""><dc:format>image/svg+xml</dc:format><dc:type
         rdf:resource="http://purl.org/dc/dcmitype/StillImage" /><dc:title></dc:title></cc:Work></rdf:RDF></metadata><defs
   id="defs17" /><sodipodi:namedview
   pagecolor="#ffffff"
   bordercolor="#666666"
   borderopacity="1"
   objecttolerance="10"
   gridtolerance="10"
   guidetolerance="10"
   inkscape:pageopacity="0"
   inkscape:pageshadow="2"
   inkscape:window-width="1324"
   inkscape:window-height="704"
   id="namedview15"
   showgrid="false"
   fit-margin-top="0"
   fit-margin-left="0"
   fit-margin-right="0"
   fit-margin-bottom="0"
   inkscape:zoom="0.21376812"
   inkscape:cx="388.23117"
   inkscape:cy="304.34891"
   inkscape:window-x="0"
   inkscape:window-y="27"
   inkscape:window-maximized="1"
   inkscape:current-layer="Layer_1" />
<style
   type="text/css"
   id="style2">
	.st0{fill:#65B238;}
	.st1{fill:#28EA80;}
	.st2{fill:#3A3A3A;}
	.st3{font-family:'Montserrat-Regular';}
	.st4{font-size:174.1406px;}
</style>


<rect
   style="opacity:1;fill:#ffffff;fill-opacity:1;stroke:none;stroke-width:2.14121509;stroke-linecap:round;stroke-miterlimit:4;stroke-dasharray:none;stroke-opacity:1;paint-order:markers stroke fill"
   id="rect861"
   width="762.50848"
   height="762.50848"
   x="0"
   y="0"
   ry="51.457626" /><g
   id="g10"
   transform="translate(-213.94577,-522.24575)">
	<g
   id="XMLID_1_">
		<path
   class="st0"
   d="m 483.7,693.2 c 61.1,0 116.1,26.1 154.6,67.7 -50.4,33.2 -85.3,106.4 -85.3,191.3 0,51.2 12.7,98.1 33.8,134.6 -30.5,17.2 -65.6,27 -103.1,27 -116.1,0 -210.3,-94.1 -210.3,-210.3 0,-116.2 94.1,-210.3 210.3,-210.3 z"
   id="path4"
   inkscape:connector-curvature="0"
   style="fill:#65b238" />
	</g>
	<g
   id="XMLID_2_">
		<path
   class="st1"
   d="m 913.6,965.1 c 2.2,8.1 3.4,16.7 3.4,25.5 0,53.8 -43.6,97.4 -97.4,97.4 -53.8,0 -97.4,-43.6 -97.4,-97.4 0,-53.8 43.6,-97.4 97.4,-97.4 0.7,0 1.4,0 2,0 5,14.3 13.8,28.6 26.2,41 19.7,19.7 44,30.3 65.8,30.9 z"
   id="path7"
   inkscape:connector-curvature="0"
   style="fill:#28ea80" />
	</g>
</g></svg>