<?xml version="1.0" encoding="UTF-8" standalone="no"?>
<!-- Created with Inkscape (http://www.inkscape.org/) -->

<svg
   xmlns:dc="http://purl.org/dc/elements/1.1/"
   xmlns:cc="http://creativecommons.org/ns#"
   xmlns:rdf="http://www.w3.org/1999/02/22-rdf-syntax-ns#"
   xmlns:svg="http://www.w3.org/2000/svg"
   xmlns="http://www.w3.org/2000/svg"
   xmlns:sodipodi="http://sodipodi.sourceforge.net/DTD/sodipodi-0.dtd"
   xmlns:inkscape="http://www.inkscape.org/namespaces/inkscape"
   width="183.98996"
   height="175.63165"
   viewBox="0 0 48.680675 46.469209"
   version="1.1"
   id="svg907"
   inkscape:export-filename="/home/daniel/slide01.png"
   inkscape:export-xdpi="96"
   inkscape:export-ydpi="96"
   inkscape:version="0.92.3 (2405546, 2018-03-11)"
   sodipodi:docname="welcome.svg">
  <defs
     id="defs901" />
  <sodipodi:namedview
     id="base"
     pagecolor="#ffffff"
     bordercolor="#666666"
     borderopacity="1.0"
     inkscape:pageopacity="0.0"
     inkscape:pageshadow="2"
     inkscape:zoom="1.4"
     inkscape:cx="44.343556"
     inkscape:cy="116.94609"
     inkscape:document-units="mm"
     inkscape:current-layer="layer1"
     showgrid="false"
     units="px"
     fit-margin-top="0"
     fit-margin-left="0"
     fit-margin-right="0"
     fit-margin-bottom="0"
     inkscape:window-width="1324"
     inkscape:window-height="704"
     inkscape:window-x="0"
     inkscape:window-y="27"
     inkscape:window-maximized="1" />
  <metadata
     id="metadata904">
    <rdf:RDF>
      <cc:Work
         rdf:about="">
        <dc:format>image/svg+xml</dc:format>
        <dc:type
           rdf:resource="http://purl.org/dc/dcmitype/StillImage" />
        <dc:title></dc:title>
      </cc:Work>
    </rdf:RDF>
  </metadata>
  <g
     inkscape:label="Layer 1"
     inkscape:groupmode="layer"
     id="layer1"
     transform="translate(-240.243,-247.30704)">
    <g
       id="g1527"
       transform="matrix(0.46691402,0,0,0.46691402,215.16827,169.55707)">
      <path
         sodipodi:nodetypes="ccsssssssscc"
         inkscape:connector-curvature="0"
         id="rect1469"
         d="m 84.624144,236.81713 -5.925277,7.95129 H 57.158692 c -1.828179,0 -3.296432,1.96209 -3.296432,4.39885 v 12.31726 c 0,2.43705 1.470283,4.39925 3.296432,4.39925 h 97.349578 c 1.82613,0 3.29614,-2.18395 3.29614,-4.39925 v -12.31726 c 0,-2.43706 -1.4699,-4.39885 -3.29614,-4.39885 H 90.54902 Z"
         style="opacity:1;fill:none;fill-opacity:1;stroke:#b3b3b3;stroke-width:0.31832093;stroke-linecap:round;stroke-miterlimit:4;stroke-dasharray:none;stroke-opacity:1;paint-order:markers stroke fill" />
      <text
         id="text1467"
         y="257.82239"
         x="65.94236"
         style="font-style:normal;font-variant:normal;font-weight:normal;font-stretch:normal;font-size:1.34995055px;line-height:1.25;font-family:Comfortaa;-inkscape-font-specification:Comfortaa;letter-spacing:0px;word-spacing:0px;fill:#000000;fill-opacity:1;stroke:none;stroke-width:0.25311571"
         xml:space="preserve"><tspan
           style="font-size:8.09970284px;stroke-width:0.25311571"
           y="257.82239"
           x="65.94236"
           id="tspan1465"
           sodipodi:role="line">Hi, let's get started!</tspan></text>
    </g>
    <g
       id="g10"
       transform="matrix(0.06211434,0,0,0.06211434,227.61288,204.24938)">
      <g
         id="XMLID_1_">
        <path
           class="st0"
           d="m 483.7,693.2 c 61.1,0 116.1,26.1 154.6,67.7 -50.4,33.2 -85.3,106.4 -85.3,191.3 0,51.2 12.7,98.1 33.8,134.6 -30.5,17.2 -65.6,27 -103.1,27 -116.1,0 -210.3,-94.1 -210.3,-210.3 0,-116.2 94.1,-210.3 210.3,-210.3 z"
           id="path4"
           inkscape:connector-curvature="0"
           style="fill:#65b238" />
      </g>
      <g
         id="XMLID_2_">
        <path
           class="st1"
           d="m 913.6,965.1 c 2.2,8.1 3.4,16.7 3.4,25.5 0,53.8 -43.6,97.4 -97.4,97.4 -53.8,0 -97.4,-43.6 -97.4,-97.4 0,-53.8 43.6,-97.4 97.4,-97.4 0.7,0 1.4,0 2,0 5,14.3 13.8,28.6 26.2,41 19.7,19.7 44,30.3 65.8,30.9 z"
           id="path7"
           inkscape:connector-curvature="0"
           style="fill:#28ea80" />
      </g>
    </g>
  </g>
</svg>
